<svg width="19" height="18" viewBox="0 0 19 18" fill="none" xmlns="http://www.w3.org/2000/svg">
<g id="at-sign">
<path id="Vector" d="M9.5 12C11.1569 12 12.5 10.6569 12.5 9C12.5 7.34315 11.1569 6 9.5 6C7.84315 6 6.5 7.34315 6.5 9C6.5 10.6569 7.84315 12 9.5 12Z" stroke="#A4302D" stroke-width="2" stroke-linecap="round" stroke-linejoin="round"/>
<path id="Vector_2" d="M12.5 6.00002V9.75002C12.5 10.3468 12.7371 10.9191 13.159 11.341C13.581 11.763 14.1533 12 14.75 12C15.3467 12 15.919 11.763 16.341 11.341C16.763 10.9191 17 10.3468 17 9.75002V9.00002C16.9999 7.30729 16.4272 5.66438 15.375 4.33842C14.3227 3.01246 12.8529 2.08144 11.2045 1.69675C9.55605 1.31205 7.82596 1.4963 6.29552 2.21955C4.76508 2.94279 3.52431 4.16249 2.77495 5.68032C2.0256 7.19814 1.81173 8.92483 2.16813 10.5796C2.52453 12.2344 3.43024 13.7199 4.73798 14.7947C6.04572 15.8695 7.67858 16.4703 9.37106 16.4994C11.0635 16.5285 12.7161 15.9842 14.06 14.955" stroke="#A4302D" stroke-width="2" stroke-linecap="round" stroke-linejoin="round"/>
</g>
</svg>
