<svg width="19" height="18" viewBox="0 0 19 18" fill="none" xmlns="http://www.w3.org/2000/svg">
<g id="phone-call" clip-path="url(#clip0_754_2334)">
<path id="Vector" d="M17.1835 13.105V15.3627C17.1843 15.5723 17.1413 15.7798 17.0572 15.9718C16.9731 16.1638 16.8497 16.3362 16.6949 16.4779C16.5402 16.6196 16.3575 16.7275 16.1586 16.7946C15.9597 16.8618 15.7489 16.8867 15.5397 16.8679C13.2195 16.6162 10.9907 15.8249 9.03256 14.5574C7.21072 13.402 5.66612 11.8603 4.50845 10.042C3.23415 8.07867 2.44112 5.84336 2.19362 3.51715C2.17478 3.30904 2.19956 3.09929 2.26638 2.90126C2.33321 2.70323 2.44061 2.52126 2.58176 2.36693C2.72291 2.2126 2.89471 2.0893 3.08622 2.00487C3.27773 1.92044 3.48475 1.87673 3.69411 1.87654H5.95617C6.3221 1.87294 6.67685 2.00228 6.95431 2.24043C7.23176 2.47859 7.41299 2.80932 7.4642 3.17097C7.55968 3.89349 7.73674 4.60292 7.99201 5.28571C8.09346 5.55507 8.11542 5.84782 8.05528 6.12925C7.99514 6.41069 7.85543 6.66903 7.6527 6.87364L6.6951 7.82941C7.76849 9.71352 9.33149 11.2735 11.2192 12.3449L12.1768 11.3891C12.3818 11.1868 12.6406 11.0473 12.9226 10.9873C13.2046 10.9273 13.4979 10.9492 13.7678 11.0504C14.4519 11.3052 15.1627 11.4819 15.8866 11.5772C16.2528 11.6288 16.5874 11.813 16.8265 12.0946C17.0656 12.3763 17.1927 12.7359 17.1835 13.105Z" stroke="#A4302D" stroke-width="2" stroke-linecap="round" stroke-linejoin="round"/>
</g>
<defs>
<clipPath id="clip0_754_2334">
<rect width="18" height="18" fill="white" transform="translate(0.5)"/>
</clipPath>
</defs>
</svg>
