<svg width="20" height="23" viewBox="0 0 20 23" fill="none" xmlns="http://www.w3.org/2000/svg">
<g id="Group 257">
<path id="Vector" d="M15.9992 7.50177C15.9992 5.91047 15.367 4.38435 14.2415 3.25913C13.1161 2.13391 11.5896 1.50177 9.99799 1.50177C8.40635 1.50177 6.87991 2.13391 5.75445 3.25913C4.629 4.38435 3.99672 5.91047 3.99672 7.50177C3.99672 14.5018 0.996094 16.5018 0.996094 16.5018H18.9999C18.9999 16.5018 15.9992 14.5018 15.9992 7.50177Z" stroke="#45494E" stroke-width="2" stroke-linecap="round" stroke-linejoin="round"/>
<path id="Vector_2" d="M11.7276 20.5018C11.5518 20.8048 11.2994 21.0564 10.9958 21.2313C10.6922 21.4062 10.348 21.4982 9.99758 21.4982C9.6472 21.4982 9.30297 21.4062 8.99935 21.2313C8.69574 21.0564 8.44339 20.8048 8.26758 20.5018" stroke="#45494E" stroke-width="2" stroke-linecap="round" stroke-linejoin="round"/>
</g>
</svg>
