<svg width="22" height="23" viewBox="0 0 22 23" fill="none" xmlns="http://www.w3.org/2000/svg">
<g id="Group 256">
<path id="Vector" d="M10.994 21.5C16.5181 21.5 20.9962 17.0228 20.9962 11.5C20.9962 5.97715 16.5181 1.5 10.994 1.5C5.47004 1.5 0.991943 5.97715 0.991943 11.5C0.991943 17.0228 5.47004 21.5 10.994 21.5Z" stroke="#45494E" stroke-width="2" stroke-linecap="round" stroke-linejoin="round"/>
<path id="Vector_2" d="M8.0835 8.49959C8.31865 7.83126 8.7828 7.2677 9.39373 6.90873C10.0047 6.54975 10.723 6.41853 11.4214 6.5383C12.1198 6.65808 12.7533 7.02112 13.2097 7.56312C13.666 8.10512 13.9158 8.79111 13.9147 9.49959C13.9147 11.4996 10.9141 12.4996 10.9141 12.4996" stroke="#45494E" stroke-width="2" stroke-linecap="round" stroke-linejoin="round"/>
<path id="Vector_3" d="M10.9941 16.5H11.0041" stroke="#45494E" stroke-width="2" stroke-linecap="round" stroke-linejoin="round"/>
</g>
</svg>
